# xmcd
#
# Track frame offsets:
#   150
#   12215
#   24720
#   41510
#   53285
#   68540
#   85332
#   101507
#   118845
#   134227
#
# Disc length: 2021 seconds
#
# Revision: 4
# Processed by: cddbd v1.5.1PL0 Copyright (c) Steve Scherf et al.
# Submitted via: Media_Universe 3.0
#
DISCID=7e07e30a
DTITLE=Mark Chesnutt - What A Way To Live
DYEAR=1994
DGENRE=Country
TTITLE0=What A Way To Live
TTITLE1=Live A Little
TTITLE2=She Dreams
TTITLE3=Goin' Through The Big D
TTITLE4=Down In Tennessee
TTITLE5=Gonna Get A Life
TTITLE6=It's Almost Like You're Here
TTITLE7=Rainy Day Woman (Duet With Waylon Jennings)
TTITLE8=This Side Of The Door
TTITLE9=Half Of Everything (And All Of My Heart)
EXTD=YEAR: 1994
EXTT0=
EXTT1=
EXTT2=
EXTT3=
EXTT4=
EXTT5=
EXTT6=
EXTT7=
EXTT8=
EXTT9=
PLAYORDER=
